<?xml version="1.0" encoding="utf-8"?>
<svg version="1.1" xmlns="http://www.w3.org/2000/svg" xmlns:xlink="http://www.w3.org/1999/xlink" viewBox="0 0 447.2 63.7">
	<g>
		<path d="M40.6,52H19.8l-3.6,11.7H0L23.1,0.9h14.3l23.2,62.9H44.3L40.6,52z M23.5,40.3H37l-6.8-21.8L23.5,40.3z"/>
		<path d="M133.9,12.6H115v51.2H99.9V12.6H81.4V0.9h52.6V12.6z"/>
		<path d="M212.3,63.7h-15.1V37.5h-22.3v26.3h-15.2V0.9h15.2v25h22.3v-25h15.1V63.7z"/>
		<path d="M252.4,0.9v11.7h27.9V0.9H252.4z M252.4,63.7h27.9V52.1h-27.9V63.7z M275.9,25.8h-23.5V37h23.5V25.8z"/>
		<path d="M352.8,40L330.6,0.9h-15.1v62.9h15.1V24.6l22.3,39.1H368V29.2h-15.1V40z M352.8,0.9v13H368v-13H352.8z"/>
		<path d="M432,47c0-2.2-0.8-3.9-2.4-5.2c-1.6-1.2-4.3-2.5-8.3-3.8c-3.9-1.3-7.2-2.6-9.7-3.8c-8.1-4-12.2-9.5-12.2-16.5
			c0-3.5,1-6.6,3-9.2c2-2.7,4.9-4.7,8.6-6.2C414.9,0.7,419,0,423.7,0c4.5,0,8.6,0.8,12.2,2.4c3.6,1.6,6.4,3.9,8.4,6.9
			c2,3,3,6.4,3,10.2H432c0-2.6-0.8-4.5-2.4-6c-1.6-1.4-3.7-2.1-6.4-2.1c-2.7,0-4.8,0.6-6.4,1.8c-1.6,1.2-2.4,2.7-2.4,4.6
			c0,1.6,0.9,3.1,2.6,4.4c1.7,1.3,4.8,2.7,9.1,4.1c4.3,1.4,7.9,2.9,10.7,4.5c6.8,3.9,10.2,9.3,10.2,16.2c0,5.5-2.1,9.8-6.2,13
			c-4.1,3.1-9.8,4.7-17.1,4.7c-5.1,0-9.7-0.9-13.8-2.7c-4.1-1.8-7.2-4.3-9.3-7.5c-2.1-3.2-3.1-6.8-3.1-11h15.2c0,3.4,0.9,5.9,2.6,7.4
			c1.7,1.6,4.6,2.4,8.5,2.4c2.5,0,4.5-0.5,5.9-1.6C431.3,50.5,432,49,432,47z"/>
	</g>
</svg>
